<svg version="1.1" id="Layer_1" xmlns="http://www.w3.org/2000/svg" xmlns:xlink="http://www.w3.org/1999/xlink" x="0px" y="0px"
	 width="100%" viewBox="0 0 576 384" enable-background="new 0 0 576 384" xml:space="preserve">
<path fill="#000000" opacity="1.000000" stroke="none" 
	d="
M310.071045,132.378647 
	C318.433563,108.431160 335.132538,95.407394 359.705811,92.056244 
	C363.768280,91.502228 365.408173,92.627907 365.397980,97.004242 
	C365.285248,145.465271 365.505859,193.927643 365.242218,242.387512 
	C365.094513,269.541077 340.047791,294.947113 313.017365,296.288300 
	C309.273499,296.474091 307.606842,295.492462 307.615814,291.382446 
	C307.722473,242.588394 307.681396,193.794037 307.729126,144.999802 
	C307.733215,140.819489 308.945282,136.794693 310.071045,132.378647 
z"/>
<path fill="#000000" opacity="1.000000" stroke="none" 
	d="
M290.294067,204.967163 
	C290.284912,216.409683 289.550812,216.970566 278.523102,214.454086 
	C253.652161,208.778656 237.552017,191.890656 233.010620,166.632843 
	C232.689621,164.847473 232.689102,162.988892 232.686951,161.164169 
	C232.662384,140.351593 232.660324,119.538963 232.666351,98.726357 
	C232.668427,91.592453 232.686417,91.592461 239.926849,92.532127 
	C264.418579,95.710678 283.246094,112.494675 288.719543,136.197479 
	C289.763794,140.719604 290.337219,145.333862 290.319000,150.027695 
	C290.248474,168.175995 290.292847,186.324722 290.294067,204.967163 
z"/>
<path fill="#000000" opacity="1.000000" stroke="none" 
	d="
M241.426849,275.205322 
	C240.433365,263.976471 241.080780,253.158447 240.953339,242.349670 
	C240.920151,239.534424 242.465286,238.643814 245.076492,238.656982 
	C256.893951,238.716507 268.723053,238.377029 280.526428,238.792725 
	C292.928253,239.229492 303.646790,249.930359 304.187317,262.328766 
	C304.621887,272.297241 304.247864,282.298981 304.362640,292.284454 
	C304.397552,295.325684 303.136536,296.360016 300.186279,296.337036 
	C288.036316,296.242554 275.878998,296.531616 263.736267,296.219543 
	C252.312607,295.925934 243.516830,287.490448 241.426849,275.205322 
z"/>
</svg>